<?xml version="1.0" encoding="utf-8"?>
<!-- Svg Vector Icons : http://www.onlinewebfonts.com/icon -->
<!DOCTYPE svg PUBLIC "-//W3C//DTD SVG 1.1//EN" "http://www.w3.org/Graphics/SVG/1.1/DTD/svg11.dtd">
<svg version="1.1" xmlns="http://www.w3.org/2000/svg" xmlns:xlink="http://www.w3.org/1999/xlink" x="0px" y="0px" viewBox="0 0 1000 1000" enable-background="new 0 0 1000 1000" xml:space="preserve">
<metadata> Svg Vector Icons : http://www.onlinewebfonts.com/icon </metadata>
<g><g transform="translate(0.000000,511.000000) scale(0.100000,-0.100000)"><path d="M933.9,4989.8c-395.8-58.4-746.3-411-811.2-819.8c-30.3-194.7-30.3-7938.6,0-8133.3c56.3-361.3,309.3-657.6,659.8-778.7c123.3-43.3,179.5-43.3,4220.3-43.3c3921.7,0,4099.1,2.1,4222.4,38.9c302.8,95.2,551.6,346.1,640.3,651.1c30.3,106,34.6,527.8,34.6,4200.7c0,4045,0,4081.8-43.3,4224.6c-86.5,274.7-348.3,536.5-633.8,633.8c-106,36.8-346.1,38.9-4135.9,41.1C2872,5007.1,1005.3,5000.6,933.9,4989.8z M5245,1786.2c67.1-62.7,815.5-720.3,1663.4-1462.3C7918.6-560.8,8457.2-1047.5,8481-1092.9c86.5-188.2,60.6-385-73.6-517c-69.2-71.4-95.2-82.2-175.2-82.2c-51.9,2.2-116.8,13-140.6,28.1c-26,15.1-724.6,620.8-1553.1,1345.5C5710,408.3,5022.2,1001,5011.4,1001c-10.8,0-625.1-530-1364.9-1178.9C1738.6-1850,1931.1-1692.1,1807.8-1692.1c-116.8,0-212,62.7-272.6,181.7c-49.8,93-47.6,305,2.2,406.7c26,56.2,475.9,460.7,1566.1,1416.8c841.5,735.5,1589.9,1393,1663.4,1462.3c127.6,116.8,140.6,123.3,244.4,123.3C5113,1898.7,5128.1,1890,5245,1786.2z"/></g></g>
</svg>